<svg width="100" height="100" viewBox="0 0 100 100" fill="none" xmlns="http://www.w3.org/2000/svg">
<g clip-path="url(#clip0_442_207)">
<path fill-rule="evenodd" clip-rule="evenodd" d="M88.8889 100H11.1111C4.97461 100 0 95.0254 0 88.8889V11.1111C0 4.97461 4.97461 0 11.1111 0H88.8889C95.0254 0 100 4.97461 100 11.1111V88.8889C100 95.0254 95.0254 100 88.8889 100ZM71.2717 86.1111H86.1111V55.6267C86.1111 42.7284 78.7996 36.492 68.5869 36.492C58.3695 36.492 54.0695 44.4485 54.0695 44.4485V37.963H39.7685V86.1111H54.0695V60.8363C54.0695 54.064 57.187 50.0341 63.1538 50.0341C68.6386 50.0341 71.2717 53.9066 71.2717 60.8363V86.1111ZM13.8889 22.7736C13.8889 27.6801 17.8362 31.6584 22.7074 31.6584C27.5787 31.6584 31.5236 27.6801 31.5236 22.7736C31.5236 17.8672 27.5787 13.8889 22.7074 13.8889C17.8362 13.8889 13.8889 17.8672 13.8889 22.7736ZM30.2353 86.1111H15.323V37.963H30.2353V86.1111Z" fill="#F6F6F6"/>
</g>
<defs>
<clipPath id="clip0_442_207">
<rect width="100" height="100" fill="#F6F6F6"/>
</clipPath>
</defs>
</svg>
