<svg width="120" height="100" viewBox="0 0 120 100" fill="none" xmlns="http://www.w3.org/2000/svg">
<path d="M106.458 22.7329C105.015 12.1774 95.6681 3.85892 84.5878 2.24702C82.7185 1.97465 75.6355 0.983398 59.2285 0.983398H59.1059C42.6943 0.983398 39.1733 1.97465 37.3039 2.24702C26.5321 3.81426 16.6951 11.2888 14.3085 21.9693C13.1605 27.2292 13.038 33.0606 13.2513 38.4097C13.5553 46.0807 13.6142 53.7383 14.3221 61.3782C14.8114 66.4529 15.6651 71.4872 16.8766 76.4434C19.1453 85.5968 28.329 93.2143 37.3266 96.3219C46.9599 99.5628 57.3196 100.101 67.246 97.8758C68.3379 97.6257 69.4179 97.3355 70.4857 97.005C72.895 96.2505 75.7219 95.4066 77.8 93.9241C77.8285 93.9034 77.8519 93.8765 77.8683 93.8455C77.8848 93.8147 77.894 93.7805 77.8952 93.7455V86.3425C77.8947 86.3098 77.8868 86.2777 77.872 86.2485C77.8573 86.2192 77.8362 86.1936 77.81 86.1735C77.7839 86.1534 77.7535 86.1393 77.7212 86.1322C77.6888 86.1252 77.6553 86.1253 77.623 86.1326C71.2633 87.6276 64.7462 88.3769 58.2076 88.3652C46.9549 88.3652 43.9285 83.1097 43.0617 80.9219C42.3652 79.031 41.9228 77.0585 41.7459 75.0547C41.7442 75.0211 41.7505 74.9874 41.7643 74.9567C41.7781 74.9258 41.7992 74.8987 41.8257 74.8773C41.8523 74.856 41.8835 74.8412 41.9169 74.834C41.9504 74.8268 41.985 74.8274 42.0182 74.8359C48.272 76.3207 54.6828 77.0701 61.1161 77.0685C62.6633 77.0685 64.2059 77.0685 65.7533 77.0283C72.2235 76.8497 79.0431 76.5238 85.4091 75.3002C85.5679 75.2691 85.7267 75.2423 85.8629 75.202C95.904 73.3044 105.46 67.348 106.431 52.2649C106.467 51.6711 106.558 46.045 106.558 45.4288C106.562 43.3348 107.243 30.5735 106.458 22.7329ZM91.0036 60.3691H80.4453V34.9181C80.4453 29.56 78.1766 26.8273 73.562 26.8273C68.4892 26.8273 65.9483 30.06 65.9483 36.4452V50.3762H55.4534V36.4452C55.4534 30.06 52.908 26.8273 47.8352 26.8273C43.2478 26.8273 40.9564 29.56 40.9519 34.9181V60.3691H30.4025V34.1455C30.4025 28.7874 31.7925 24.5307 34.5724 21.3754C37.44 18.2276 41.2015 16.6112 45.8705 16.6112C51.2744 16.6112 55.3581 18.6562 58.0805 22.7418L60.7077 27.0819L63.3393 22.7418C66.0617 18.6562 70.1454 16.6112 75.5404 16.6112C80.2048 16.6112 83.9662 18.2276 86.8429 21.3754C89.6229 24.5278 91.0128 28.7845 91.0128 34.1455L91.0036 60.3691Z" fill="#F6F6F6"/>
</svg>
